<svg display="none" xmlns="http://www.w3.org/2000/svg">
    <symbol id="rocket" viewBox="0 0 34 39">
        <g><path d="M25.527 23.613c.55 3.047.941 9.69-4.99 13.205-.792.47-1.372.024-1.357-.885.06-4.006-1.428-13.957-17.747-13.656-.925.016-1.482-.65-1.121-1.487 1.145-2.656 4.32-7.772 11.735-7.524.922.031 2.007-.517 2.497-1.287 1.283-2.019 4.072-5.762 8.48-8.435 2.72-1.698 5.22-2.418 6.78-2.724.906-.176 1.679-.26 1.71-.306l.06-.083c.214-.27.466-.43.564-.36l.07.053c.04.028.31-.024.605-.115.295-.092.483.051.421.319-.06.267-.085.503-.053.527l.058.043c.095.074.002.352-.216.621a1.89 1.89 0 0 1-.085.105c-.052.055.02.824.063 1.731a20.327 20.327 0 0 1-.257 4.215c-.024.158-.05.312-.077.461-.023.119-.04.228-.065.346-.108.557-.226 1.05-.336 1.464-.215.802-.689 2.132-1.037 2.973-1.026 2.467-2.594 5.163-4.973 7.958-.593.697-.89 1.946-.729 2.84zm-.73-7.837c.895-1.51.341-3.458-1.23-4.345-1.378-.777-3.078-.492-4.083.6-.141.153-.268.32-.378.508-.895 1.509-.345 3.454 1.23 4.345 1.374.779 3.074.492 4.082-.6a3.16 3.16 0 0 0 .379-.508zM9.104 37.372c.758-1.818 2.398-4.828 5.467-6.748.78-.487 1.261-.07.91.77-.796 1.903-2.49 5.094-5.417 6.824-.792.468-1.31-.004-.96-.846zm-5.88.595c.917-2.46 3.209-7.234 7.902-10.003.793-.466 1.279-.055.957.797-.972 2.574-3.376 7.666-7.845 10.089-.808.437-1.33-.03-1.014-.883zm-.996-5.889c.76-1.82 2.4-4.827 5.467-6.745.78-.487 1.262-.07.91.77-.796 1.902-2.49 5.092-5.416 6.82-.792.467-1.312-.005-.96-.845z"/></g>
    </symbol>

    <symbol id="pc" viewBox="0 0 41 38">
       <g><path d="M26.6 37.965c-.528.071-5.507.006-5.875 0-.368.006-5.348.071-5.876 0-.549-.075 0-.513.694-1.024.695-.511.767-1.28.767-1.28l.262-1.665h8.305l.26 1.666s.074.768.77 1.28c.693.512 1.241.95.694 1.023zM11.37 23.63c2.218-.017 2.494-.552 3.217-2.78 1.334-3.517 7.341.92 3.618 2.46-3.722 1.542-9.055.337-6.836.32zM34.033 4.552L20.652 19.117c-1.124 1.395-.864 1.333-1.94.465-1.077-.867-1.083-.6.04-1.995L30.137 1.409C31.26.014 33.043-.413 34.12.455c1.077.867 1.038 2.701-.086 4.097zM32.938.644s-1.635-.249-2.466 1.11c.555.443.721.637.721.637s.195-.831 1.745-1.747zm7.834 6.881v23.262c0 .886-.718 1.605-1.604 1.605H2.28a1.604 1.604 0 0 1-1.603-1.605V7.525c0-.885.718-1.604 1.603-1.604h23.022l-1.695 2.406H3.084V27.58h35.282V8.327h-6.415l2.211-2.406h5.006c.886 0 1.604.719 1.604 1.604z"/></g> 
    </symbol>

    <symbol id="result" viewBox="0 0 37 37">
        <g><path d="M37 3.894v29.211A3.906 3.906 0 0 1 33.11 37H3.895A3.908 3.908 0 0 1 0 33.105V3.894A3.905 3.905 0 0 1 3.895-.001H33.11C35.248 0 37 1.75 37 3.894zM4.225 24.745h28.55V5.27H4.224zm30.101 5.475H14.395a3.331 3.331 0 0 0-3.239-2.567 3.332 3.332 0 0 0-3.238 2.567H2.676v1.542h5.246a3.326 3.326 0 0 0 3.234 2.56 3.327 3.327 0 0 0 3.235-2.56h19.935zM21.906 8.093h3.982v13.361h-3.981zM10.922 13.23h3.983v8.223H10.92zm5.493-2.183h3.984v10.406h-3.984z"/></g>
    </symbol>

    <symbol id="speaker" viewBox="0 0 37 38">
        <g><path d="M12.17 11.163l-.06 12.663c.002 1.06-1.34 2.923-1.34 2.923-.992 2.957 1.5 4.01-.243 5.817C12.844 37.326 8.187 38 8.187 38 6.59 38 6.84 36.409 6.84 36.409l-.016-9.916c.136-2.514-1.433-2.572-1.433-2.572-3.789.005-3.95-4.053-3.956-4.542a3.293 3.293 0 0 1-1.439-2.72c0-1.127.568-2.12 1.431-2.712v-.11c-.007-3.985 4.109-4.172 4.109-4.172l5.206-.01c1.683-.003 1.432 1.504 1.428 1.508zm24.833 5.017c.004 1.725-.973 3.214-2.388 3.976l.023 11.55c.078 1.428-1.025.059-1.025.059s-4.779-8.837-18.754-8.81c0 0-1.32.001-1.32-1.259l-.022-10.93s-.236-1.26 1.239-1.263c0 0 12.504.736 18.549-8.692 0 0 1.273-1.684 1.277-.17l.019 11.573c1.418.76 2.402 2.237 2.402 3.966zM33.04 3.33c-3.976 6.18-12.197 7.334-12.197 7.334 10.652-.108 12.197-7.334 12.197-7.334zm1.93 9.851c1.583 2.32 1.16 4.29 1.16 4.29.965-3.053-1.16-4.29-1.16-4.29z"/></g>
    </symbol>
    <symbol id="quotes" viewBox="0 0 34 29">
        <g><path fill="#fff" d="M7.285 15.711h8.506v13.284H-.006V15.71C-.006 5.688 2.427.005 10.93.005v8.093c-3.644 0-3.644.726-3.644 5.075zm26.72 0v13.284H18.218V15.71C18.218 5.688 20.648.005 29.15.005v8.094c-3.643 0-3.643.726-3.643 5.075v2.537z"/></g>
    </symbol>
</svg>