<svg xmlns="http://www.w3.org/2000/svg" width="34" height="39" viewBox="0 0 34 39"><g><g><path fill="#fff" d="M25.527 23.613c.55 3.047.941 9.69-4.99 13.205-.792.47-1.372.024-1.357-.885.06-4.006-1.428-13.957-17.747-13.656-.925.016-1.482-.65-1.121-1.487 1.145-2.656 4.32-7.772 11.735-7.524.922.031 2.007-.517 2.497-1.287 1.283-2.019 4.072-5.762 8.48-8.435 2.72-1.698 5.22-2.418 6.78-2.724.906-.176 1.679-.26 1.71-.306l.06-.083c.214-.27.466-.43.564-.36l.07.053c.04.028.31-.024.605-.115.295-.092.483.051.421.319-.06.267-.085.503-.053.527l.058.043c.095.074.002.352-.216.621a1.89 1.89 0 0 1-.085.105c-.052.055.02.824.063 1.731a20.327 20.327 0 0 1-.257 4.215c-.024.158-.05.312-.077.461-.023.119-.04.228-.065.346-.108.557-.226 1.05-.336 1.464-.215.802-.689 2.132-1.037 2.973-1.026 2.467-2.594 5.163-4.973 7.958-.593.697-.89 1.946-.729 2.84zm-.73-7.837c.895-1.51.341-3.458-1.23-4.345-1.378-.777-3.078-.492-4.083.6-.141.153-.268.32-.378.508-.895 1.509-.345 3.454 1.23 4.345 1.374.779 3.074.492 4.082-.6a3.16 3.16 0 0 0 .379-.508zM9.104 37.372c.758-1.818 2.398-4.828 5.467-6.748.78-.487 1.261-.07.91.77-.796 1.903-2.49 5.094-5.417 6.824-.792.468-1.31-.004-.96-.846zm-5.88.595c.917-2.46 3.209-7.234 7.902-10.003.793-.466 1.279-.055.957.797-.972 2.574-3.376 7.666-7.845 10.089-.808.437-1.33-.03-1.014-.883zm-.996-5.889c.76-1.82 2.4-4.827 5.467-6.745.78-.487 1.262-.07.91.77-.796 1.902-2.49 5.092-5.416 6.82-.792.467-1.312-.005-.96-.845z"/></g></g></svg>