<svg xmlns="http://www.w3.org/2000/svg" style="display: none;"><symbol id="facebook" viewBox="0 0 512 512"><title>facebook</title><path d="m75 512h167v-182h-60v-60h60v-75c0-41.355469 33.644531-75 75-75h75v60h-60c-16.542969 0-30 13.457031-30 30v60h87.292969l-10 60h-77.292969v182h135c41.355469 0 75-33.644531 75-75v-362c0-41.355469-33.644531-75-75-75h-362c-41.355469 0-75 33.644531-75 75v362c0 41.355469 33.644531 75 75 75zm-45-437c0-24.8125 20.1875-45 45-45h362c24.8125 0 45 20.1875 45 45v362c0 24.8125-20.1875 45-45 45h-105v-122h72.707031l20-120h-92.707031v-30h90v-120h-105c-57.898438 0-105 47.101562-105 105v45h-60v120h60v122h-137c-24.8125 0-45-20.1875-45-45zm0 0"/></symbol><symbol id="twitter" viewBox="0 -47 512.00004 512"><title>twitter</title><path d="m512 55.964844c-32.207031 1.484375-31.503906 1.363281-35.144531 1.667968l19.074219-54.472656s-59.539063 21.902344-74.632813 25.820313c-39.640625-35.628907-98.5625-37.203125-140.6875-11.3125-34.496094 21.207031-53.011719 57.625-46.835937 100.191406-67.136719-9.316406-123.703126-41.140625-168.363282-94.789063l-14.125-16.964843-10.554687 19.382812c-13.339844 24.492188-17.769531 52.496094-12.476563 78.851563 2.171875 10.8125 5.863282 21.125 10.976563 30.78125l-12.117188-4.695313-1.4375 20.246094c-1.457031 20.566406 5.390625 44.574219 18.320313 64.214844 3.640625 5.53125 8.328125 11.605469 14.269531 17.597656l-6.261719-.960937 7.640625 23.199218c10.042969 30.480469 30.902344 54.0625 57.972657 67.171875-27.035157 11.472657-48.875 18.792969-84.773438 30.601563l-32.84375 10.796875 30.335938 16.585937c11.566406 6.324219 52.4375 27.445313 92.820312 33.78125 89.765625 14.078125 190.832031 2.613282 258.871094-58.664062 57.308594-51.613282 76.113281-125.03125 72.207031-201.433594-.589844-11.566406 2.578125-22.605469 8.921875-31.078125 12.707031-16.964844 48.765625-66.40625 48.84375-66.519531zm-72.832031 48.550781c-10.535157 14.066406-15.8125 32.03125-14.867188 50.578125 3.941407 77.066406-17.027343 136.832031-62.328125 177.628906-52.917968 47.660156-138.273437 66.367188-234.171875 51.324219-17.367187-2.722656-35.316406-8.820313-50.171875-14.910156 30.097656-10.355469 53.339844-19.585938 90.875-37.351563l52.398438-24.800781-57.851563-3.703125c-27.710937-1.773438-50.785156-15.203125-64.96875-37.007812 7.53125-.4375 14.792969-1.65625 22.023438-3.671876l55.175781-15.367187-55.636719-13.625c-27.035156-6.621094-42.445312-22.796875-50.613281-35.203125-5.363281-8.152344-8.867188-16.503906-10.96875-24.203125 5.578125 1.496094 12.082031 2.5625 22.570312 3.601563l51.496094 5.09375-40.800781-31.828126c-29.398437-22.929687-41.179687-57.378906-32.542969-90.496093 91.75 95.164062 199.476563 88.011719 210.320313 90.527343-2.386719-23.183593-2.449219-23.238281-3.074219-25.445312-13.886719-49.089844 16.546875-74.015625 30.273438-82.453125 28.671874-17.621094 74.183593-20.277344 105.707031 8.753906 6.808593 6.265625 16.015625 8.730469 24.632812 6.589844 7.734375-1.921875 14.082031-3.957031 20.296875-6.171875l-12.9375 36.945312 16.515625.011719c-3.117187 4.179688-6.855469 9.183594-11.351562 15.183594zm0 0"/></symbol><symbol id="google-plus" viewBox="0 -91 512 512"><title>google-plus</title><path d="m482 90h-90v30h-30v90h30v30h90v-30h30v-90h-30zm0 90h-30v30h-30v-30h-30v-30h30v-30h30v30h30zm0 0"/><path d="m166 0c-91.53125 0-166 74.019531-166 165s74.46875 165 166 165 166-74.019531 166-165c0-11.097656-1.109375-22.195312-3.300781-32.984375l-2.4375-12.015625h-93.046875l61.0625-61.066406c-4.886719-3.421875-46.808594-58.933594-128.277344-58.933594zm63.820312 80.964844c-18.152343-13.449219-40.710937-20.964844-63.820312-20.964844-58.050781 0-106 47.117188-106 105 0 57.8125 47.886719 105 106 105 45.265625 0 85.398438-28.8125 99.996094-69.988281l7.097656-20.011719h-92.09375v-30h120.175781c.546875 4.96875.824219 9.984375.824219 15 0 74.4375-61.011719 135-136 135s-136-60.5625-136-135 61.011719-135 136-135c31.0625 0 61.382812 10.628906 85.238281 29.546875zm-3.0625 129.035156c-14.179687 18.339844-36.816406 30-60.757812 30-41.90625 0-76-33.644531-76-75s34.09375-75 76-75c39.195312 0 58.128906 27.207031 62.007812 30h-77.007812v90zm0 0"/></symbol><symbol id="linkedin" viewBox="0 0 512 512"><title>linkedin</title><path d="m437 0h-362c-41.355469 0-75 33.644531-75 75v362c0 41.355469 33.644531 75 75 75h362c41.355469 0 75-33.644531 75-75v-362c0-41.355469-33.644531-75-75-75zm45 437c0 24.8125-20.1875 45-45 45h-362c-24.8125 0-45-20.1875-45-45v-362c0-24.8125 20.1875-45 45-45h362c24.8125 0 45 20.1875 45 45zm0 0"/><path d="m91 422h90v-212h-90zm30-182h30v152h-30zm0 0"/><path d="m331.085938 210c-.027344 0-.058594 0-.085938 0-10.371094 0-20.472656 1.734375-30 5.101562v-5.101562h-90v212h90v-107c0-8.269531 6.730469-15 15-15s15 6.730469 15 15v107h90v-117.3125c0-48.546875-39.382812-94.640625-89.914062-94.6875zm59.914062 182h-30v-77c0-24.8125-20.1875-45-45-45s-44.996094 20.1875-45 44.996094v77.003906h-30v-152h30v30.019531l24.007812-18.03125c10.441407-7.84375 22.886719-11.988281 35.992188-11.988281h.058594c31.929687.03125 59.941406 30.257812 59.941406 64.6875zm0 0"/><path d="m91 180h90v-90h-90zm30-60h30v30h-30zm0 0"/></symbol><symbol id="behance" viewBox="0 0 512 512"><title>behance</title><path d="m437 0h-362c-41.355469 0-75 33.644531-75 75v362c0 41.355469 33.644531 75 75 75h362c41.355469 0 75-33.644531 75-75v-362c0-41.355469-33.644531-75-75-75zm45 437c0 24.8125-20.1875 45-45 45h-362c-24.8125 0-45-20.1875-45-45v-362c0-24.8125 20.1875-45 45-45h362c24.8125 0 45 20.1875 45 45zm0 0"/><path d="m241 211c0-33.085938-26.914062-60-60-60h-90v210h90c33.085938 0 60-26.914062 60-60 0-17.90625-7.894531-33.996094-20.378906-45 12.484375-11.003906 20.378906-27.09375 20.378906-45zm-30 90c0 16.542969-13.457031 30-30 30h-60v-60h60c16.542969 0 30 13.457031 30 30zm-90-60v-60h60c16.542969 0 30 13.457031 30 30s-13.457031 30-30 30zm0 0"/><path d="m346 211c-41.355469 0-75 33.644531-75 75s33.644531 75 75 75c26.691406 0 51.582031-14.363281 64.957031-37.488281l-25.96875-15.023438c-8.03125 13.886719-22.972656 22.511719-38.988281 22.511719-19.558594 0-36.238281-12.539062-42.429688-30h117.429688v-15c0-41.355469-33.644531-75-75-75zm-42.429688 60c6.191407-17.460938 22.871094-30 42.429688-30s36.238281 12.539062 42.429688 30zm0 0"/><path d="m286 151h120v30h-120zm0 0"/></symbol><symbol id="dribbble" viewBox="0 0 512 512"><title>dribbble</title><path d="m257 512c140.929688 0 255-114.050781 255-255 0-140.433594-113.59375-257-255-257-140.816406 0-257 116.105469-257 257 0 141.53125 116.707031 255 257 255zm-131.617188-71.78125c18.589844-70.84375 84.8125-128.484375 169.515626-154.007812 19.863281 58.601562 32.125 120.492187 35.847656 183.363281-23.113282 8.039062-47.925782 12.425781-73.746094 12.425781-49.023438 0-94.46875-15.488281-131.617188-41.78125zm234.605469 16.789062c-4.472656-61.175781-16.417969-120.855468-35.644531-178.207031 52.203125-10.621093 106.628906-8.621093 156.082031 4.753907-8.933593 75.628906-55.511719 139.886718-120.4375 173.453124zm-63.015625-247.648437c50.898438-18.96875 104.863282-50.425781 134.210938-95.882813 30.957031 38.164063 49.84375 86.648438 50.765625 139.476563-53.21875-13.347656-111.582031-14.769531-167.875-2.769531-5.449219-14.230469-10.957031-27.335938-17.101563-40.824219zm112.949219-118.707031c-24.351563 44.046875-78.890625 74.355468-126.019531 91.566406-26.378906-51.890625-58.648438-99.226562-96.375-141.332031 21.90625-7.058594 45.25-10.886719 69.472656-10.886719 58.996094 0 112.75 23.039062 152.921875 60.652344zm-252.09375-37.8125c38.027344 40.96875 70.601563 87.890625 96.945313 138.847656-65.792969 18.910156-142.953126 25.371094-219.402344 16.175781 15.125-68.273437 61.078125-125.085937 122.457031-155.023437zm-126.984375 184.699218c81.921875 9.988282 165.507812 2.925782 237.277344-18.523437 5.859375 12.714844 11.351562 25.644531 16.449218 38.773437-82.433593 24.988282-157.105468 81.285157-184.3125 161.8125-43.265624-40.992187-70.257812-98.730468-70.257812-162.601562 0-6.554688.296875-13.042969.84375-19.460938zm0 0"/></symbol><symbol id="github" viewBox="0 0 512 512"><title>github</title><path d="m256 0c-140.699219 0-256 116.300781-256 257 0 139.882812 114.25 255 256 255 141.574219 0 256-114.945312 256-255 0-140.699219-115.300781-257-256-257zm45 477.5c-14.398438 3-29.699219 4.5-45 4.5s-30.601562-1.5-45-4.5v-70.199219c0-16.800781 4.5-22.800781 10.5-30.902343 3.054688-3.492188 4.898438-6.625 18.597656-27.296876l-23.097656-3.601562c-59.402344-8.699219-82.800781-39.601562-92.101562-63.601562-12-32.097657-5.699219-72.300782 15.902343-97.796876 3.300781-3.902343 6-10.503906 3.601563-17.402343-4.503906-13.800781-3.902344-35.699219-.902344-44.101563 15.90625 2.273438 32.261719 13.667969 45.902344 21.902344 6.285156 3.667969 9.582031 2.699219 12.597656 3 10.960938-2.28125 28.058594-7.800781 54.300781-7.800781 16.199219 0 33.300781 2.398437 50.101563 7.199219 3.003906-.070313 7.832031 2.484374 16.199218-2.398438 14.257813-8.6875 30.058594-19.691406 45.898438-21.902344 3 8.402344 3.601562 30.300782-.898438 44.101563-2.402343 6.898437.296876 13.5 3.601563 17.402343 21.597656 25.5 27.898437 65.699219 15.898437 97.796876-9.300781 24-32.699218 54.902343-92.101562 63.601562l-23.097656 3.601562c14.160156 21.367188 15.652344 23.929688 18.601562 27.296876 5.996094 8.101562 10.496094 14.101562 10.496094 30.902343zm30-8.699219v-61.5c0-17.101562-3.601562-28.5-8.402344-36.902343 45.601563-12.296876 78.003906-39.300782 92.402344-78 15.300781-40.796876 8.402344-89.398438-17.101562-123 4.503906-20.097657 4.503906-52.199219-6.296876-67.199219-4.800781-6.597657-11.402343-10.199219-19.800781-10.199219-.300781 0-.300781 0-.300781 0-23.261719 1.257812-41.570312 12.972656-61.199219 24.898438-18-4.800782-36.300781-7.199219-54.601562-7.199219-18.597657 0-37.199219 2.699219-53.695313 7.199219-20.664062-12.460938-38.796875-23.671876-62.703125-24.898438-7.5 0-14.101562 3.601562-18.902343 10.199219-10.796876 15-10.796876 47.101562-6.296876 67.199219-25.503906 33.601562-32.402343 82.5-17.101562 123 14.398438 38.699218 46.800781 65.703124 92.402344 78-3.722656 6.511718-6.667969 14.914062-7.828125 26.285156-9.210938 3.175781-17.199219 4.210937-24.628907 2.027344-7.835937-2.316407-13.941406-7.546876-19.246093-16.46875-11.914063-20.015626-32.207031-36.355469-55.3125-34.230469l2.636719 29.882812c10.699218-.980469 21.347656 10.339844 26.878906 19.671875 9.125 15.367188 21.417968 25.445313 36.546875 29.914063 11.230469 3.308593 21.496093 3.230469 32.550781.871093v40.449219c-87.300781-30.601562-151-114-151-211.800781 0-124.199219 101.800781-227 226-227s226 102.800781 226 227c0 97.800781-63.699219 181.199219-151 211.800781zm0 0"/></symbol></svg>